<svg xmlns="http://www.w3.org/2000/svg" viewBox="0 0 440 303.6" width="100%" style="display:block;margin:1mm auto 1.5mm;"><rect x="96" y="26" width="104" height="209.6" rx="6" fill="#1F2A24" stroke="#0E1512" stroke-width="1.2"/><circle cx="107" cy="37" r="5" fill="#0B1310" stroke="#3C4A42" stroke-width="1"/><circle cx="107" cy="224.6" r="5" fill="#0B1310" stroke="#3C4A42" stroke-width="1"/><circle cx="189" cy="37" r="5" fill="#0B1310" stroke="#3C4A42" stroke-width="1"/><circle cx="189" cy="224.6" r="5" fill="#0B1310" stroke="#3C4A42" stroke-width="1"/><rect x="117" y="50" width="62" height="96" rx="2" fill="#B9BFC6" stroke="#8A9199" stroke-width="1"/><polyline points="123,55 123,63 131.333,55 131.333,63 139.667,55 139.667,63 148,55 148,63 156.333,55 156.333,63 164.667,55 164.667,63 173,55 173,63" fill="none" stroke="#7D858D" stroke-width="1.6"/><g transform="rotate(-90 148 98)"><text x="148" y="101" text-anchor="middle" style="font-family:'DejaVu Sans',sans-serif;font-size:7.4px;fill:#4A5058;font-weight:bold">ESP-WROOM-32</text></g><rect x="135" y="226.6" width="26" height="13" rx="2" fill="#9AA4B0" stroke="#6B7580" stroke-width="1"/><text x="148" y="251.6" text-anchor="middle" style="font-family:'DejaVu Sans',sans-serif;font-size:7px;fill:#5A6068;font-weight:normal">USB</text><rect x="111" y="201.6" width="14" height="14" rx="2" fill="#6E7780" stroke="#4A5058" stroke-width="0.8"/><text x="118" y="198.6" text-anchor="middle" style="font-family:'DejaVu Sans',sans-serif;font-size:5.6px;fill:#C8CED6;font-weight:normal">EN</text><rect x="171" y="201.6" width="14" height="14" rx="2" fill="#6E7780" stroke="#4A5058" stroke-width="0.8"/><text x="178" y="198.6" text-anchor="middle" style="font-family:'DejaVu Sans',sans-serif;font-size:5.6px;fill:#C8CED6;font-weight:normal">BOOT</text><circle cx="105" cy="44" r="4.4" fill="#0B1310" stroke="#4A5A52" stroke-width="1.6"/><circle cx="105" cy="56.4" r="4.4" fill="#0B1310" stroke="#4A5A52" stroke-width="1.6"/><circle cx="105" cy="68.8" r="4.4" fill="#0B1310" stroke="#4A5A52" stroke-width="1.6"/><circle cx="105" cy="81.2" r="4.4" fill="#0B1310" stroke="#4A5A52" stroke-width="1.6"/><circle cx="105" cy="93.6" r="4.4" fill="#0B1310" stroke="#4A5A52" stroke-width="1.6"/><circle cx="105" cy="106" r="4.4" fill="#0B1310" stroke="#4A5A52" stroke-width="1.6"/><circle cx="105" cy="118.4" r="4.4" fill="#0B1310" stroke="#4A5A52" stroke-width="1.6"/><circle cx="105" cy="130.8" r="4.4" fill="#0B1310" stroke="#4A5A52" stroke-width="1.6"/><circle cx="105" cy="143.2" r="4.4" fill="#0B1310" stroke="#4A5A52" stroke-width="1.6"/><circle cx="105" cy="155.6" r="4.4" fill="#0B1310" stroke="#4A5A52" stroke-width="1.6"/><circle cx="105" cy="168" r="4.4" fill="#0B1310" stroke="#4A5A52" stroke-width="1.6"/><circle cx="105" cy="180.4" r="4.4" fill="#0B1310" stroke="#4A5A52" stroke-width="1.6"/><circle cx="105" cy="192.8" r="4.4" fill="#0B1310" stroke="#4A5A52" stroke-width="1.6"/><circle cx="105" cy="205.2" r="4.4" fill="#0B1310" stroke="#4A5A52" stroke-width="1.6"/><circle cx="105" cy="217.6" r="4.4" fill="#0B1310" stroke="#4A5A52" stroke-width="1.6"/><circle cx="191" cy="44" r="4.4" fill="#0B1310" stroke="#4A5A52" stroke-width="1.6"/><circle cx="191" cy="56.4" r="4.4" fill="#0B1310" stroke="#4A5A52" stroke-width="1.6"/><circle cx="191" cy="68.8" r="4.4" fill="#0B1310" stroke="#4A5A52" stroke-width="1.6"/><circle cx="191" cy="81.2" r="4.4" fill="#0B1310" stroke="#4A5A52" stroke-width="1.6"/><circle cx="191" cy="93.6" r="4.4" fill="#0B1310" stroke="#4A5A52" stroke-width="1.6"/><circle cx="191" cy="106" r="4.4" fill="#0B1310" stroke="#4A5A52" stroke-width="1.6"/><circle cx="191" cy="118.4" r="4.4" fill="#0B1310" stroke="#4A5A52" stroke-width="1.6"/><circle cx="191" cy="130.8" r="4.4" fill="#0B1310" stroke="#4A5A52" stroke-width="1.6"/><circle cx="191" cy="143.2" r="4.4" fill="#0B1310" stroke="#4A5A52" stroke-width="1.6"/><circle cx="191" cy="155.6" r="4.4" fill="#0B1310" stroke="#C9A227" stroke-width="1.6"/><rect x="202" y="149.1" width="47.2" height="13" rx="2.6" fill="#1B6B8C"/><text x="225.6" y="159" text-anchor="middle" style="font-family:'DejaVu Sans',sans-serif;font-size:7.2px;fill:#FFFFFF;font-weight:bold">GPIO16</text><line x1="195.6" y1="155.6" x2="202" y2="155.6" stroke="#8A9199" stroke-width="1.4"/><circle cx="191" cy="168" r="4.4" fill="#0B1310" stroke="#C9A227" stroke-width="1.6"/><rect x="202" y="161.5" width="41" height="13" rx="2.6" fill="#B9770E"/><text x="222.5" y="171.4" text-anchor="middle" style="font-family:'DejaVu Sans',sans-serif;font-size:7.2px;fill:#FFFFFF;font-weight:bold">GPIO4</text><line x1="195.6" y1="168" x2="202" y2="168" stroke="#8A9199" stroke-width="1.4"/><circle cx="191" cy="180.4" r="4.4" fill="#0B1310" stroke="#4A5A52" stroke-width="1.6"/><circle cx="191" cy="192.8" r="4.4" fill="#0B1310" stroke="#4A5A52" stroke-width="1.6"/><circle cx="191" cy="205.2" r="4.4" fill="#0B1310" stroke="#C9A227" stroke-width="1.6"/><rect x="202" y="198.7" width="28.6" height="13" rx="2.6" fill="#33383D"/><text x="216.3" y="208.6" text-anchor="middle" style="font-family:'DejaVu Sans',sans-serif;font-size:7.2px;fill:#FFFFFF;font-weight:bold">GND</text><line x1="195.6" y1="205.2" x2="202" y2="205.2" stroke="#8A9199" stroke-width="1.4"/><circle cx="191" cy="217.6" r="4.4" fill="#0B1310" stroke="#C9A227" stroke-width="1.6"/><rect x="202" y="211.1" width="28.6" height="13" rx="2.6" fill="#C0392B"/><text x="216.3" y="221" text-anchor="middle" style="font-family:'DejaVu Sans',sans-serif;font-size:7.2px;fill:#FFFFFF;font-weight:bold">3V3</text><line x1="195.6" y1="217.6" x2="202" y2="217.6" stroke="#8A9199" stroke-width="1.4"/><rect x="312" y="96" width="84" height="84" rx="3" fill="#3A5F7D" stroke="#1B2430" stroke-width="1"/><text x="354" y="109" text-anchor="middle" style="font-family:'DejaVu Sans',sans-serif;font-size:7.6px;fill:#EAF2ED;font-weight:bold">HX710B</text><line x1="312" y1="116.8" x2="303" y2="116.8" stroke="#C8CED6" stroke-width="2.2" stroke-linecap="round"/><text x="317" y="119.4" text-anchor="start" style="font-family:'DejaVu Sans',sans-serif;font-size:6.6px;fill:#EAF2ED;font-weight:bold">VCC</text><line x1="312" y1="133.6" x2="303" y2="133.6" stroke="#C8CED6" stroke-width="2.2" stroke-linecap="round"/><text x="317" y="136.2" text-anchor="start" style="font-family:'DejaVu Sans',sans-serif;font-size:6.6px;fill:#EAF2ED;font-weight:bold">OUT</text><line x1="312" y1="150.4" x2="303" y2="150.4" stroke="#C8CED6" stroke-width="2.2" stroke-linecap="round"/><text x="317" y="153" text-anchor="start" style="font-family:'DejaVu Sans',sans-serif;font-size:6.6px;fill:#EAF2ED;font-weight:bold">SCK</text><line x1="312" y1="167.2" x2="303" y2="167.2" stroke="#C8CED6" stroke-width="2.2" stroke-linecap="round"/><text x="317" y="169.8" text-anchor="start" style="font-family:'DejaVu Sans',sans-serif;font-size:6.6px;fill:#EAF2ED;font-weight:bold">GND</text><text x="354" y="194" text-anchor="middle" style="font-family:'DejaVu Sans',sans-serif;font-size:6.6px;fill:#7A8290;font-weight:normal;font-style:italic">transmisor de presión</text><polyline points="303,167.2 308,167.2 308,273.6" fill="none" stroke="#33383D" stroke-width="2" stroke-linejoin="round" stroke-linecap="round"/><circle cx="308" cy="273.6" r="2.6" fill="#33383D"/><polyline points="308,273.6 244,273.6 244,205.2 230.6,205.2" fill="none" stroke="#33383D" stroke-width="2" stroke-linejoin="round" stroke-linecap="round"/><polyline points="249.2,155.6 272,155.6 272,133.6 303,133.6" fill="none" stroke="#6C3FA0" stroke-width="2" stroke-linejoin="round" stroke-linecap="round"/><polyline points="243,168 286,168 286,150.4 303,150.4" fill="none" stroke="#D2691E" stroke-width="2" stroke-linejoin="round" stroke-linecap="round"/><path d="M 230.6,217.6 L 240.4,217.6 A 3.6 3.6 0 0 1 247.6,217.6 L 296,217.6 L 296,154 A 3.6 3.6 0 0 1 296,146.8 L 296,137.2 A 3.6 3.6 0 0 1 296,130 L 296,116.8 L 303,116.8" fill="none" stroke="#C0392B" stroke-width="2" stroke-linejoin="round" stroke-linecap="round"/><text x="260" y="13" text-anchor="middle" style="font-family:'DejaVu Sans',sans-serif;font-size:6.6px;fill:#7A8290;font-weight:normal;font-style:italic">OUT lleva el dato y SCK el reloj: la placa marca el ritmo</text></svg>