<svg xmlns="http://www.w3.org/2000/svg" viewBox="0 0 440 297.6" width="100%" style="display:block;margin:1mm auto 1.5mm;"><rect x="96" y="26" width="104" height="209.6" rx="6" fill="#1F2A24" stroke="#0E1512" stroke-width="1.2"/><circle cx="107" cy="37" r="5" fill="#0B1310" stroke="#3C4A42" stroke-width="1"/><circle cx="107" cy="224.6" r="5" fill="#0B1310" stroke="#3C4A42" stroke-width="1"/><circle cx="189" cy="37" r="5" fill="#0B1310" stroke="#3C4A42" stroke-width="1"/><circle cx="189" cy="224.6" r="5" fill="#0B1310" stroke="#3C4A42" stroke-width="1"/><rect x="117" y="50" width="62" height="96" rx="2" fill="#B9BFC6" stroke="#8A9199" stroke-width="1"/><polyline points="123,55 123,63 131.333,55 131.333,63 139.667,55 139.667,63 148,55 148,63 156.333,55 156.333,63 164.667,55 164.667,63 173,55 173,63" fill="none" stroke="#7D858D" stroke-width="1.6"/><g transform="rotate(-90 148 98)"><text x="148" y="101" text-anchor="middle" style="font-family:'DejaVu Sans',sans-serif;font-size:7.4px;fill:#4A5058;font-weight:bold">ESP-WROOM-32</text></g><rect x="135" y="226.6" width="26" height="13" rx="2" fill="#9AA4B0" stroke="#6B7580" stroke-width="1"/><text x="148" y="251.6" text-anchor="middle" style="font-family:'DejaVu Sans',sans-serif;font-size:7px;fill:#5A6068;font-weight:normal">USB</text><rect x="111" y="201.6" width="14" height="14" rx="2" fill="#6E7780" stroke="#4A5058" stroke-width="0.8"/><text x="118" y="198.6" text-anchor="middle" style="font-family:'DejaVu Sans',sans-serif;font-size:5.6px;fill:#C8CED6;font-weight:normal">EN</text><rect x="171" y="201.6" width="14" height="14" rx="2" fill="#6E7780" stroke="#4A5058" stroke-width="0.8"/><text x="178" y="198.6" text-anchor="middle" style="font-family:'DejaVu Sans',sans-serif;font-size:5.6px;fill:#C8CED6;font-weight:normal">BOOT</text><circle cx="105" cy="44" r="4.4" fill="#0B1310" stroke="#4A5A52" stroke-width="1.6"/><circle cx="105" cy="56.4" r="4.4" fill="#0B1310" stroke="#4A5A52" stroke-width="1.6"/><circle cx="105" cy="68.8" r="4.4" fill="#0B1310" stroke="#4A5A52" stroke-width="1.6"/><circle cx="105" cy="81.2" r="4.4" fill="#0B1310" stroke="#4A5A52" stroke-width="1.6"/><circle cx="105" cy="93.6" r="4.4" fill="#0B1310" stroke="#C9A227" stroke-width="1.6"/><rect x="37.8" y="87.1" width="56.2" height="13" rx="2.6" fill="#2E7D5B"/><text x="61.4" y="97" text-anchor="middle" style="font-family:'DejaVu Sans',sans-serif;font-size:7.2px;fill:#FFFFFF;font-weight:bold">GPIO35</text><path d="M 90 93.6 l 5 4 l 0 -8 z" fill="#FFFFFF" opacity="0.9"/><line x1="100.4" y1="93.6" x2="94" y2="93.6" stroke="#8A9199" stroke-width="1.4"/><circle cx="105" cy="106" r="4.4" fill="#0B1310" stroke="#4A5A52" stroke-width="1.6"/><circle cx="105" cy="118.4" r="4.4" fill="#0B1310" stroke="#4A5A52" stroke-width="1.6"/><circle cx="105" cy="130.8" r="4.4" fill="#0B1310" stroke="#4A5A52" stroke-width="1.6"/><circle cx="105" cy="143.2" r="4.4" fill="#0B1310" stroke="#4A5A52" stroke-width="1.6"/><circle cx="105" cy="155.6" r="4.4" fill="#0B1310" stroke="#4A5A52" stroke-width="1.6"/><circle cx="105" cy="168" r="4.4" fill="#0B1310" stroke="#4A5A52" stroke-width="1.6"/><circle cx="105" cy="180.4" r="4.4" fill="#0B1310" stroke="#4A5A52" stroke-width="1.6"/><circle cx="105" cy="192.8" r="4.4" fill="#0B1310" stroke="#4A5A52" stroke-width="1.6"/><circle cx="105" cy="205.2" r="4.4" fill="#0B1310" stroke="#4A5A52" stroke-width="1.6"/><circle cx="105" cy="217.6" r="4.4" fill="#0B1310" stroke="#C9A227" stroke-width="1.6"/><rect x="65.4" y="211.1" width="28.6" height="13" rx="2.6" fill="#C0392B"/><text x="79.7" y="221" text-anchor="middle" style="font-family:'DejaVu Sans',sans-serif;font-size:7.2px;fill:#FFFFFF;font-weight:bold">VIN</text><line x1="100.4" y1="217.6" x2="94" y2="217.6" stroke="#8A9199" stroke-width="1.4"/><circle cx="191" cy="44" r="4.4" fill="#0B1310" stroke="#4A5A52" stroke-width="1.6"/><circle cx="191" cy="56.4" r="4.4" fill="#0B1310" stroke="#4A5A52" stroke-width="1.6"/><circle cx="191" cy="68.8" r="4.4" fill="#0B1310" stroke="#4A5A52" stroke-width="1.6"/><circle cx="191" cy="81.2" r="4.4" fill="#0B1310" stroke="#4A5A52" stroke-width="1.6"/><circle cx="191" cy="93.6" r="4.4" fill="#0B1310" stroke="#4A5A52" stroke-width="1.6"/><circle cx="191" cy="106" r="4.4" fill="#0B1310" stroke="#4A5A52" stroke-width="1.6"/><circle cx="191" cy="118.4" r="4.4" fill="#0B1310" stroke="#4A5A52" stroke-width="1.6"/><circle cx="191" cy="130.8" r="4.4" fill="#0B1310" stroke="#4A5A52" stroke-width="1.6"/><circle cx="191" cy="143.2" r="4.4" fill="#0B1310" stroke="#4A5A52" stroke-width="1.6"/><circle cx="191" cy="155.6" r="4.4" fill="#0B1310" stroke="#4A5A52" stroke-width="1.6"/><circle cx="191" cy="168" r="4.4" fill="#0B1310" stroke="#4A5A52" stroke-width="1.6"/><circle cx="191" cy="180.4" r="4.4" fill="#0B1310" stroke="#4A5A52" stroke-width="1.6"/><circle cx="191" cy="192.8" r="4.4" fill="#0B1310" stroke="#4A5A52" stroke-width="1.6"/><circle cx="191" cy="205.2" r="4.4" fill="#0B1310" stroke="#C9A227" stroke-width="1.6"/><rect x="202" y="198.7" width="28.6" height="13" rx="2.6" fill="#33383D"/><text x="216.3" y="208.6" text-anchor="middle" style="font-family:'DejaVu Sans',sans-serif;font-size:7.2px;fill:#FFFFFF;font-weight:bold">GND</text><line x1="195.6" y1="205.2" x2="202" y2="205.2" stroke="#8A9199" stroke-width="1.4"/><circle cx="191" cy="217.6" r="4.4" fill="#0B1310" stroke="#4A5A52" stroke-width="1.6"/><circle cx="292" cy="108" r="18" fill="#3F4750" stroke="#1B2430" stroke-width="1"/><circle cx="292" cy="108" r="12" fill="#9AA4B0"/><line x1="292" y1="108" x2="300" y2="100" stroke="#3F4750" stroke-width="2.4" stroke-linecap="round"/><line x1="283" y1="126" x2="283" y2="138" stroke="#7A8290" stroke-width="1.8" stroke-linecap="round"/><line x1="292" y1="126" x2="292" y2="138" stroke="#7A8290" stroke-width="1.8" stroke-linecap="round"/><line x1="301" y1="126" x2="301" y2="138" stroke="#7A8290" stroke-width="1.8" stroke-linecap="round"/><text x="292" y="84" text-anchor="middle" style="font-family:'DejaVu Sans',sans-serif;font-size:7px;fill:#1b1b1a;font-weight:normal">10 kΩ</text><text x="305" y="128" text-anchor="start" style="font-family:'DejaVu Sans',sans-serif;font-size:6px;fill:#7A8290;font-weight:normal">cursor</text><line x1="338" y1="158" x2="380" y2="158" stroke="#7A8290" stroke-width="1.6"/><rect x="346" y="153" width="26" height="10" rx="3" fill="#E8D9B5"/><rect x="350" y="153" width="2.4" height="10" fill="#7B4B2A"/><rect x="355" y="153" width="2.4" height="10" fill="#1b1b1a"/><rect x="360" y="153" width="2.4" height="10" fill="#E67E22"/><rect x="368" y="153" width="2.4" height="10" fill="#C9A227"/><text x="359" y="172" text-anchor="middle" style="font-family:'DejaVu Sans',sans-serif;font-size:7px;fill:#1b1b1a;font-weight:normal">R1 10 kΩ</text><line x1="386" y1="220" x2="386" y2="262" stroke="#7A8290" stroke-width="1.6"/><rect x="381" y="228" width="10" height="26" rx="3" fill="#E8D9B5"/><rect x="381" y="232" width="10" height="2.4" fill="#7B4B2A"/><rect x="381" y="237" width="10" height="2.4" fill="#2E8B57"/><rect x="381" y="242" width="10" height="2.4" fill="#E67E22"/><rect x="381" y="250" width="10" height="2.4" fill="#C9A227"/><text x="395" y="243" text-anchor="start" style="font-family:'DejaVu Sans',sans-serif;font-size:7px;fill:#1b1b1a;font-weight:normal">R2 15 kΩ</text><polyline points="283,138 283,295.6 24,295.6 24,217.6 65.4,217.6" fill="none" stroke="#C0392B" stroke-width="2" stroke-linejoin="round" stroke-linecap="round"/><polyline points="301,138 323,138 323,273.6" fill="none" stroke="#33383D" stroke-width="2" stroke-linejoin="round" stroke-linecap="round"/><circle cx="323" cy="273.6" r="2.6" fill="#33383D"/><path d="M 292,138 L 292,158 L 319.4,158 A 3.6 3.6 0 0 1 326.6,158 L 338,158" fill="none" stroke="#1B6B8C" stroke-width="2" stroke-linejoin="round" stroke-linecap="round"/><polyline points="380,158 386,158 386,220" fill="none" stroke="#1B6B8C" stroke-width="2" stroke-linejoin="round" stroke-linecap="round"/><polyline points="386,262 386,273.6" fill="none" stroke="#33383D" stroke-width="2" stroke-linejoin="round" stroke-linecap="round"/><circle cx="386" cy="273.6" r="2.6" fill="#33383D"/><circle cx="386" cy="220" r="2.6" fill="#1B6B8C"/><path d="M 386,220 L 386,230 L 326.6,230 A 3.6 3.6 0 0 0 319.4,230 L 286.6,230 A 3.6 3.6 0 0 0 279.4,230 L 256,230 L 256,14 L 24,14 L 24,93.6 L 37.8,93.6" fill="none" stroke="#6C3FA0" stroke-width="2" stroke-linejoin="round" stroke-linecap="round"/><path d="M 323,273.6 L 286.6,273.6 A 3.6 3.6 0 0 0 279.4,273.6 L 244,273.6 L 244,205.2 L 230.6,205.2" fill="none" stroke="#33383D" stroke-width="2" stroke-linejoin="round" stroke-linecap="round"/></svg>